<?xml version="1.0" encoding="utf-8"?>
<svg xmlns="http://www.w3.org/2000/svg" style="margin: auto; background: none; display: block; shape-rendering: auto;" width="280" height="250" preserveAspectRatio="xMidYMid">
<style type="text/css">
  text {
    text-anchor: middle; font-size: 40px; opacity: 0;
  }
</style>
<g style="transform-origin:140px 125px;transform:scale(1)">
<g transform="translate(140,125)">
  <g transform="translate(0,0)"><g class="path" style="opacity: 1; transform-origin: -46.355px -3.8939px; animation: 1s linear -0.594s infinite normal forwards running fade-6c949600-c68a-4f06-b70b-c8d8feceafe7;"><path d="M18.98-6.13L18.98-6.13L18.98-6.13Q18.98-9.61 15.23-11.72L15.23-11.72L15.23-11.72Q14.49-12.11 10.66-13.79L10.66-13.79L10.66-13.79Q7.19-15.27 6.29-16.84L6.29-16.84L6.29-16.84Q5.82-17.70 5.82-18.67L5.82-18.67L5.82-18.67Q5.82-21.29 8.36-22.30L8.36-22.30L8.36-22.30Q9.45-22.73 10.78-22.73L10.78-22.73L10.78-22.73Q14.06-22.73 15.78-20.51L15.78-20.51L15.78-20.51Q16.91-18.98 16.88-16.80L16.88-16.80L18.05-16.80L18.05-23.63L18.05-23.63Q17.11-23.63 16.95-23.05L16.95-23.05L16.95-23.05Q16.88-22.77 16.88-22.30L16.88-22.30L16.88-22.30Q14.10-23.83 10.63-23.83L10.63-23.83L10.63-23.83Q6.41-23.83 4.06-21.48L4.06-21.48L4.06-21.48Q2.50-19.84 2.50-17.66L2.50-17.66L2.50-17.66Q2.50-14.38 6.17-12.30L6.17-12.30L6.17-12.30Q6.84-11.95 10.63-10.31L10.63-10.31L10.63-10.31Q14.14-8.75 15.08-7.15L15.08-7.15L15.08-7.15Q15.59-6.25 15.59-5.20L15.59-5.20L15.59-5.20Q15.59-2.46 12.93-1.25L12.93-1.25L12.93-1.25Q11.68-0.70 10.16-0.70L10.16-0.70L10.16-0.70Q4.18-0.78 3.52-8.01L3.52-8.01L2.34-8.01L2.34 0.08L2.34 0.08Q3.28 0.08 3.44-0.47L3.44-0.47L3.44-0.47Q3.52-0.78 3.52-1.60L3.52-1.60L3.52-1.60Q6.52 0.39 10.35 0.39L10.35 0.39L10.35 0.39Q14.84 0.39 17.30-2.03L17.30-2.03L17.30-2.03Q18.98-3.75 18.98-6.13" fill="#93dbe9" stroke="none" stroke-width="none" transform="translate(-57.01497399806976,7.826097184181209)" style="fill: rgb(147, 219, 233);"></path></g><g class="path" style="opacity: 1; transform-origin: -30.415px -0.473903px; animation: 1s linear -0.528s infinite normal forwards running fade-6c949600-c68a-4f06-b70b-c8d8feceafe7;"><path d="M30.12-0.98L30.12-0.98L28.16-0.98L28.16-16.60L22.11-16.60L22.11-15.63L25.23-15.63L25.23-3.32L25.23-3.32Q25.23-1.52 24.02-1.13L24.02-1.13L24.02-1.13Q23.44-0.98 22.11-0.98L22.11-0.98L22.11 0L31.09 0L31.09 0Q31.09-0.86 30.51-0.94L30.51-0.94L30.51-0.94Q30.31-0.98 30.12-0.98" fill="#93dbe9" stroke="none" stroke-width="none" transform="translate(-57.01497399806976,7.826097184181209)" style="fill: rgb(147, 219, 233);"></path></g><g class="path" style="opacity: 1; transform-origin: -30.51px -14.4789px; animation: 1s linear -0.462s infinite normal forwards running fade-6c949600-c68a-4f06-b70b-c8d8feceafe7;"><path d="M28.63-22.30L28.63-22.30L28.63-22.30Q28.63-23.67 27.42-24.26L27.42-24.26L27.42-24.26Q26.95-24.45 26.52-24.45L26.52-24.45L26.52-24.45Q25.16-24.45 24.57-23.20L24.57-23.20L24.57-23.20Q24.38-22.77 24.38-22.30L24.38-22.30L24.38-22.30Q24.38-20.86 25.66-20.31L25.66-20.31L25.66-20.31Q26.09-20.16 26.52-20.16L26.52-20.16L26.52-20.16Q27.89-20.16 28.44-21.41L28.44-21.41L28.44-21.41Q28.63-21.84 28.63-22.30" fill="#93dbe9" stroke="none" stroke-width="none" transform="translate(-57.01497399806976,7.826097184181209)" style="fill: rgb(147, 219, 233);"></path></g><g class="path" style="opacity: 1; transform-origin: -14.75px -0.473903px; animation: 1s linear -0.396s infinite normal forwards running fade-6c949600-c68a-4f06-b70b-c8d8feceafe7;"><path d="M47.54 0.39L47.54 0.39L47.54 0.39Q50.55 0.39 50.86-3.24L50.86-3.24L50.86-3.24Q50.90-3.48 50.90-3.67L50.90-3.67L49.88-3.71L49.88-3.71Q49.61-0.86 48.36-0.82L48.36-0.82L48.36-0.82Q47.34-0.90 47.30-2.85L47.30-2.85L47.30-11.09L47.30-11.09Q47.30-16.68 41.72-16.99L41.72-16.99L41.72-16.99Q41.37-16.99 41.02-16.99L41.02-16.99L41.02-16.99Q36.64-16.99 35.16-14.96L35.16-14.96L35.16-14.96Q34.69-14.30 34.69-13.63L34.69-13.63L34.69-13.63Q34.69-12.42 35.82-12.23L35.82-12.23L35.82-12.23Q36.02-12.19 36.21-12.19L36.21-12.19L36.21-12.19Q37.11-12.19 37.54-13.32L37.54-13.32L37.54-13.32Q38.09-14.77 38.28-15.04L38.28-15.04L38.28-15.04Q39.02-16.02 40.59-16.02L40.59-16.02L40.59-16.02Q44.26-15.78 44.38-11.99L44.38-11.99L44.38-9.53L44.38-9.53Q35.20-9.53 33.87-5.70L33.87-5.70L33.87-5.70Q33.63-4.96 33.63-4.10L33.63-4.10L33.63-4.10Q33.63-1.13 36.25-0.04L36.25-0.04L36.25-0.04Q37.30 0.39 38.48 0.39L38.48 0.39L38.48 0.39Q41.33 0.39 43.28-1.56L43.28-1.56L43.28-1.56Q43.98-2.30 44.34-3.13L44.34-3.13L44.34-3.13Q44.80 0.35 47.54 0.39zM39.77-1.17L39.77-1.17L39.77-1.17Q37.38-1.17 36.84-3.55L36.84-3.55L36.84-3.55Q36.72-4.10 36.72-4.77L36.72-4.77L36.72-4.77Q36.72-7.38 39.73-8.09L39.73-8.09L39.73-8.09Q41.33-8.44 44.38-8.48L44.38-8.48L44.38-5.35L44.38-5.35Q43.79-2.66 41.52-1.56L41.52-1.56L41.52-1.56Q40.63-1.17 39.77-1.17" fill="#93dbe9" stroke="none" stroke-width="none" transform="translate(-57.01497399806976,7.826097184181209)" style="fill: rgb(147, 219, 233);"></path></g><g class="path" style="opacity: 1; transform-origin: 3.26002px -0.473903px; animation: 1s linear -0.33s infinite normal forwards running fade-6c949600-c68a-4f06-b70b-c8d8feceafe7;"><path d="M52.66-8.13L52.66-8.13L52.66-8.13Q52.66-3.40 56.13-1.05L56.13-1.05L56.13-1.05Q58.28 0.39 61.02 0.39L61.02 0.39L61.02 0.39Q65.08 0.39 67.15-2.46L67.15-2.46L67.15-2.46Q67.62-3.13 67.89-3.79L67.89-3.79L66.88-4.14L66.88-4.14Q65.43-1.05 62.11-0.74L62.11-0.74L62.11-0.74Q61.80-0.70 61.48-0.70L61.48-0.70L61.48-0.70Q58.71-0.70 57.15-3.48L57.15-3.48L57.15-3.48Q55.98-5.59 55.98-8.48L55.98-8.48L55.98-8.48Q55.98-13.59 58.67-15.31L58.67-15.31L58.67-15.31Q59.80-16.02 61.17-16.02L61.17-16.02L61.17-16.02Q63.28-16.02 63.71-14.38L63.71-14.38L63.71-14.38Q63.79-14.06 63.91-13.40L63.91-13.40L63.91-13.40Q64.14-11.84 64.77-11.45L64.77-11.45L64.77-11.45Q65.16-11.25 65.63-11.21L65.63-11.21L65.63-11.21Q66.95-11.13 67.30-12.30L67.30-12.30L67.30-12.30Q67.38-12.58 67.38-12.81L67.38-12.81L67.38-12.81Q67.38-14.80 64.84-16.09L64.84-16.09L64.84-16.09Q63.05-16.99 60.94-16.99L60.94-16.99L60.94-16.99Q55.70-16.99 53.63-12.73L53.63-12.73L53.63-12.73Q52.66-10.70 52.66-8.13" fill="#93dbe9" stroke="none" stroke-width="none" transform="translate(-57.01497399806976,7.826097184181209)" style="fill: rgb(147, 219, 233);"></path></g><g class="path" style="opacity: 1; transform-origin: 16.735px -0.473903px; animation: 1s linear -0.264s infinite normal forwards running fade-6c949600-c68a-4f06-b70b-c8d8feceafe7;"><path d="M77.27-0.98L77.27-0.98L75.31-0.98L75.31-16.60L69.26-16.60L69.26-15.63L72.38-15.63L72.38-3.32L72.38-3.32Q72.38-1.52 71.17-1.13L71.17-1.13L71.17-1.13Q70.59-0.98 69.26-0.98L69.26-0.98L69.26 0L78.24 0L78.24 0Q78.24-0.86 77.66-0.94L77.66-0.94L77.66-0.94Q77.46-0.98 77.27-0.98" fill="#93dbe9" stroke="none" stroke-width="none" transform="translate(-57.01497399806976,7.826097184181209)" style="fill: rgb(147, 219, 233);"></path></g><g class="path" style="opacity: 1; transform-origin: 16.635px -14.4789px; animation: 1s linear -0.198s infinite normal forwards running fade-6c949600-c68a-4f06-b70b-c8d8feceafe7;"><path d="M75.78-22.30L75.78-22.30L75.78-22.30Q75.78-23.67 74.57-24.26L74.57-24.26L74.57-24.26Q74.10-24.45 73.67-24.45L73.67-24.45L73.67-24.45Q72.30-24.45 71.72-23.20L71.72-23.20L71.72-23.20Q71.52-22.77 71.52-22.30L71.52-22.30L71.52-22.30Q71.52-20.86 72.81-20.31L72.81-20.31L72.81-20.31Q73.24-20.16 73.67-20.16L73.67-20.16L73.67-20.16Q75.04-20.16 75.59-21.41L75.59-21.41L75.59-21.41Q75.78-21.84 75.78-22.30" fill="#93dbe9" stroke="none" stroke-width="none" transform="translate(-57.01497399806976,7.826097184181209)" style="fill: rgb(147, 219, 233);"></path></g><g class="path" style="opacity: 1; transform-origin: 26.345px 6.0111px; animation: 1s linear -0.132s infinite normal forwards running fade-6c949600-c68a-4f06-b70b-c8d8feceafe7;"><path d="M85.35-1.80L85.35-1.80L85.35-1.80Q85.35-3.09 84.18-3.63L84.18-3.63L84.18-3.63Q83.79-3.83 83.36-3.83L83.36-3.83L83.36-3.83Q82.07-3.83 81.56-2.66L81.56-2.66L81.56-2.66Q81.37-2.23 81.37-1.80L81.37-1.80L81.37-1.80Q81.37-0.55 82.50 0L82.50 0L82.50 0Q82.93 0.20 83.36 0.20L83.36 0.20L83.36 0.20Q84.61 0.20 85.16-0.94L85.16-0.94L85.16-0.94Q85.35-1.37 85.35-1.80" fill="#93dbe9" stroke="none" stroke-width="none" transform="translate(-57.01497399806976,7.826097184181209)" style="fill: rgb(147, 219, 233);"></path></g><g class="path" style="opacity: 1; transform-origin: 41.855px 6.0111px; animation: 1s linear -0.066s infinite normal forwards running fade-6c949600-c68a-4f06-b70b-c8d8feceafe7;"><path d="M100.86-1.80L100.86-1.80L100.86-1.80Q100.86-3.09 99.69-3.63L99.69-3.63L99.69-3.63Q99.30-3.83 98.87-3.83L98.87-3.83L98.87-3.83Q97.58-3.83 97.07-2.66L97.07-2.66L97.07-2.66Q96.88-2.23 96.88-1.80L96.88-1.80L96.88-1.80Q96.88-0.55 98.01 0L98.01 0L98.01 0Q98.44 0.20 98.87 0.20L98.87 0.20L98.87 0.20Q100.12 0.20 100.66-0.94L100.66-0.94L100.66-0.94Q100.86-1.37 100.86-1.80" fill="#93dbe9" stroke="none" stroke-width="none" transform="translate(-57.01497399806976,7.826097184181209)" style="fill: rgb(147, 219, 233);"></path></g><g class="path" style="opacity: 1; transform-origin: 57.36px 6.0111px; animation: 1s linear 0s infinite normal forwards running fade-6c949600-c68a-4f06-b70b-c8d8feceafe7;"><path d="M116.37-1.80L116.37-1.80L116.37-1.80Q116.37-3.09 115.20-3.63L115.20-3.63L115.20-3.63Q114.80-3.83 114.38-3.83L114.38-3.83L114.38-3.83Q113.09-3.83 112.58-2.66L112.58-2.66L112.58-2.66Q112.38-2.23 112.38-1.80L112.38-1.80L112.38-1.80Q112.38-0.55 113.52 0L113.52 0L113.52 0Q113.95 0.20 114.38 0.20L114.38 0.20L114.38 0.20Q115.63 0.20 116.17-0.94L116.17-0.94L116.17-0.94Q116.37-1.37 116.37-1.80" fill="#93dbe9" stroke="none" stroke-width="none" transform="translate(-57.01497399806976,7.826097184181209)" style="fill: rgb(147, 219, 233);"></path></g></g>
</g>
</g>
<style id="fade-6c949600-c68a-4f06-b70b-c8d8feceafe7" data-anikit="">@keyframes fade-6c949600-c68a-4f06-b70b-c8d8feceafe7
{
  0% {
    animation-timing-function: cubic-bezier(0.2057,0.573,0.3723,0.9184);
    opacity: 1;
  }
  100% {
    opacity: 0;
  }
}</style></svg>