<?xml version="1.0" encoding="utf-8"?>
<svg xmlns="http://www.w3.org/2000/svg" style="margin: auto; background: none; display: block; shape-rendering: auto;" width="280" height="250" preserveAspectRatio="xMidYMid">
<style type="text/css">
  text {
    text-anchor: middle; font-size: 40px; opacity: 0;
  }
</style>
<g style="transform-origin:140px 125px;transform:scale(1)">
<g transform="translate(140,125)">
  <g transform="translate(0,0)"><g class="path" style="opacity: 1; transform-origin: -85.12px -1.72738px; animation: 1s linear -0.6s infinite normal forwards running fade-6c949600-c68a-4f06-b70b-c8d8feceafe7;"><path d="M21.41-1.80L21.41-1.80L21.41-1.80Q21.41-0.16 21.88 0.08L21.88 0.08L21.88 0.08Q22.15 0.20 22.62 0.20L22.62 0.20L22.62-7.19L21.68-7.19L21.68-7.19Q19.69-0.74 13.71-0.70L13.71-0.70L13.71-0.70Q8.63-0.70 6.80-5.82L6.80-5.82L6.80-5.82Q5.90-8.32 5.90-11.72L5.90-11.72L5.90-11.72Q5.90-19.02 9.92-21.64L9.92-21.64L9.92-21.64Q11.68-22.73 13.83-22.73L13.83-22.73L13.83-22.73Q18.71-22.73 20.90-18.13L20.90-18.13L20.90-18.13Q21.29-17.30 21.56-16.45L21.56-16.45L22.50-16.45L22.38-23.63L22.38-23.63Q21.52-23.63 21.33-23.09L21.33-23.09L21.33-23.09Q21.21-22.62 21.21-21.56L21.21-21.56L21.21-21.56Q20.08-22.70 17.34-23.40L17.34-23.40L17.34-23.40Q15.55-23.83 13.67-23.83L13.67-23.83L13.67-23.83Q7.50-23.83 4.22-19.26L4.22-19.26L4.22-19.26Q1.95-16.02 1.95-11.80L1.95-11.80L1.95-11.80Q1.95-6.68 5.12-3.20L5.12-3.20L5.12-3.20Q8.48 0.39 13.87 0.39L13.87 0.39L13.87 0.39Q17.81 0.35 21.41-1.80" fill="#93dbe9" stroke="none" stroke-width="none" transform="translate(-97.40499877929688,9.992615307027647)" style="fill: rgb(147, 219, 233);"></path></g><g class="path" style="opacity: 1; transform-origin: -63.03px 1.69262px; animation: 1s linear -0.54s infinite normal forwards running fade-6c949600-c68a-4f06-b70b-c8d8feceafe7;"><path d="M39.65 0.39L39.65 0.39L39.65 0.39Q42.66 0.39 42.97-3.24L42.97-3.24L42.97-3.24Q43.01-3.48 43.01-3.67L43.01-3.67L41.99-3.71L41.99-3.71Q41.72-0.86 40.47-0.82L40.47-0.82L40.47-0.82Q39.45-0.90 39.41-2.85L39.41-2.85L39.41-11.09L39.41-11.09Q39.41-16.68 33.83-16.99L33.83-16.99L33.83-16.99Q33.48-16.99 33.13-16.99L33.13-16.99L33.13-16.99Q28.75-16.99 27.27-14.96L27.27-14.96L27.27-14.96Q26.80-14.30 26.80-13.63L26.80-13.63L26.80-13.63Q26.80-12.42 27.93-12.23L27.93-12.23L27.93-12.23Q28.13-12.19 28.32-12.19L28.32-12.19L28.32-12.19Q29.22-12.19 29.65-13.32L29.65-13.32L29.65-13.32Q30.20-14.77 30.39-15.04L30.39-15.04L30.39-15.04Q31.13-16.02 32.70-16.02L32.70-16.02L32.70-16.02Q36.37-15.78 36.48-11.99L36.48-11.99L36.48-9.53L36.48-9.53Q27.30-9.53 25.98-5.70L25.98-5.70L25.98-5.70Q25.74-4.96 25.74-4.10L25.74-4.10L25.74-4.10Q25.74-1.13 28.36-0.04L28.36-0.04L28.36-0.04Q29.41 0.39 30.59 0.39L30.59 0.39L30.59 0.39Q33.44 0.39 35.39-1.56L35.39-1.56L35.39-1.56Q36.09-2.30 36.45-3.13L36.45-3.13L36.45-3.13Q36.91 0.35 39.65 0.39zM31.88-1.17L31.88-1.17L31.88-1.17Q29.49-1.17 28.95-3.55L28.95-3.55L28.95-3.55Q28.83-4.10 28.83-4.77L28.83-4.77L28.83-4.77Q28.83-7.38 31.84-8.09L31.84-8.09L31.84-8.09Q33.44-8.44 36.48-8.48L36.48-8.48L36.48-5.35L36.48-5.35Q35.90-2.66 33.63-1.56L33.63-1.56L33.63-1.56Q32.73-1.17 31.88-1.17" fill="#93dbe9" stroke="none" stroke-width="none" transform="translate(-97.40499877929688,9.992615307027647)" style="fill: rgb(147, 219, 233);"></path></g><g class="path" style="opacity: 1; transform-origin: -46px 1.57262px; animation: 1s linear -0.48s infinite normal forwards running fade-6c949600-c68a-4f06-b70b-c8d8feceafe7;"><path d="M53.13-0.98L53.13-0.98L50.31-0.98L50.31-8.75L50.31-8.75Q50.31-12.30 52.50-14.45L52.50-14.45L52.50-14.45Q53.36-15.27 53.95-15.31L53.95-15.31L53.95-15.31Q54.61-15.31 55.16-14.34L55.16-14.34L55.16-14.34Q55.78-13.24 56.33-13.09L56.33-13.09L56.33-13.09Q56.56-13.01 56.80-13.01L56.80-13.01L56.80-13.01Q57.97-13.01 58.28-14.14L58.28-14.14L58.28-14.14Q58.36-14.38 58.36-14.61L58.36-14.61L58.36-14.61Q58.36-16.37 56.56-16.76L56.56-16.76L56.56-16.76Q56.17-16.84 55.82-16.84L55.82-16.84L55.82-16.84Q53.48-16.84 51.64-14.84L51.64-14.84L51.64-14.84Q50.78-13.91 50.27-12.73L50.27-12.73L50.12-16.60L44.45-16.60L44.45-15.63L47.38-15.63L47.38-3.32L47.38-3.32Q47.38-1.52 46.37-1.17L46.37-1.17L46.37-1.17Q45.78-0.98 44.45-0.98L44.45-0.98L44.45 0L54.10 0L54.10 0Q54.10-0.86 53.52-0.94L53.52-0.94L53.52-0.94Q53.36-0.98 53.13-0.98" fill="#93dbe9" stroke="none" stroke-width="none" transform="translate(-97.40499877929688,9.992615307027647)" style="fill: rgb(147, 219, 233);"></path></g><g class="path" style="opacity: 1; transform-origin: -28.655px 4.15262px; animation: 1s linear -0.42s infinite normal forwards running fade-6c949600-c68a-4f06-b70b-c8d8feceafe7;"><path d="M63.63-10.82L63.63-10.82L63.63-10.82Q63.71-15.98 67.54-16.02L67.54-16.02L67.54-16.02Q71.37-15.94 71.41-10.82L71.41-10.82L71.41-10.82Q71.33-5.51 67.54-5.47L67.54-5.47L67.54-5.47Q63.67-5.55 63.63-10.82zM67.58-16.99L67.58-16.99L67.58-16.99Q64.06-16.99 61.99-14.73L61.99-14.73L61.99-14.73Q60.51-13.05 60.51-10.78L60.51-10.78L60.51-10.78Q60.51-7.81 63.40-5.86L63.40-5.86L63.40-5.86Q63.67-5.66 63.95-5.51L63.95-5.51L63.95-5.51Q61.45-5.51 60.82-3.36L60.82-3.36L60.82-3.36Q60.70-2.85 60.70-2.34L60.70-2.34L60.70-2.34Q60.74-0.27 62.38 0.74L62.38 0.74L62.38 0.74Q61.09 2.11 61.09 3.52L61.09 3.52L61.09 3.52Q61.09 5.66 63.63 6.72L63.63 6.72L63.63 6.72Q65.23 7.42 67.58 7.42L67.58 7.42L67.58 7.42Q73.52 7.42 75.43 4.53L75.43 4.53L75.43 4.53Q76.05 3.55 76.05 2.46L76.05 2.46L76.05 2.46Q76.05-0.90 72.19-1.41L72.19-1.41L72.19-1.41Q71.68-1.48 71.13-1.48L71.13-1.48L64.02-1.64L64.02-1.64Q62.23-1.76 62.19-3.20L62.19-3.20L62.19-3.20Q62.19-4.22 63.48-4.49L63.48-4.49L63.48-4.49Q63.75-4.53 64.06-4.53L64.06-4.53L67.50-4.49L67.50-4.49Q70.98-4.49 73.05-6.84L73.05-6.84L73.05-6.84Q74.53-8.52 74.53-10.82L74.53-10.82L74.53-10.82Q74.49-13.75 72.27-15.51L72.27-15.51L72.27-15.51Q72.62-16.76 73.59-16.99L73.59-16.99L73.59-16.99Q73.75-17.03 73.91-17.03L73.91-17.03L73.91-17.03Q74.45-17.03 75.08-16.45L75.08-16.45L75.08-16.45Q75.51-16.05 75.86-16.05L75.86-16.05L75.86-16.05Q76.84-16.29 76.99-17.30L76.99-17.30L76.99-17.30Q76.99-18.52 75.86-18.95L75.86-18.95L75.86-18.95Q75.43-19.10 75-19.10L75-19.10L75-19.10Q73.16-19.10 72.03-17.46L72.03-17.46L72.03-17.46Q71.60-16.84 71.37-16.09L71.37-16.09L71.37-16.09Q69.61-16.99 67.58-16.99zM67.58 6.41L67.58 6.41L67.58 6.41Q63.71 6.41 62.70 4.38L62.70 4.38L62.70 4.38Q62.42 3.83 62.42 3.28L62.42 3.28L62.42 3.28Q62.46 2.23 63.36 1.17L63.36 1.17L63.36 1.17Q64.14 1.33 64.65 1.33L64.65 1.33L70.66 1.41L70.66 1.41Q73.59 1.45 74.06 2.73L74.06 2.73L74.06 2.73Q74.18 3.05 74.18 3.52L74.18 3.52L74.18 3.52Q74.18 5.23 70.98 6.02L70.98 6.02L70.98 6.02Q69.41 6.41 67.58 6.41" fill="#93dbe9" stroke="none" stroke-width="none" transform="translate(-97.40499877929688,9.992615307027647)" style="fill: rgb(147, 219, 233);"></path></g><g class="path" style="opacity: 1; transform-origin: -10.06px 1.69262px; animation: 1s linear -0.36s infinite normal forwards running fade-6c949600-c68a-4f06-b70b-c8d8feceafe7;"><path d="M92.62 0.39L92.62 0.39L92.62 0.39Q95.63 0.39 95.94-3.24L95.94-3.24L95.94-3.24Q95.98-3.48 95.98-3.67L95.98-3.67L94.96-3.71L94.96-3.71Q94.69-0.86 93.44-0.82L93.44-0.82L93.44-0.82Q92.42-0.90 92.38-2.85L92.38-2.85L92.38-11.09L92.38-11.09Q92.38-16.68 86.80-16.99L86.80-16.99L86.80-16.99Q86.45-16.99 86.09-16.99L86.09-16.99L86.09-16.99Q81.72-16.99 80.23-14.96L80.23-14.96L80.23-14.96Q79.77-14.30 79.77-13.63L79.77-13.63L79.77-13.63Q79.77-12.42 80.90-12.23L80.90-12.23L80.90-12.23Q81.09-12.19 81.29-12.19L81.29-12.19L81.29-12.19Q82.19-12.19 82.62-13.32L82.62-13.32L82.62-13.32Q83.16-14.77 83.36-15.04L83.36-15.04L83.36-15.04Q84.10-16.02 85.66-16.02L85.66-16.02L85.66-16.02Q89.34-15.78 89.45-11.99L89.45-11.99L89.45-9.53L89.45-9.53Q80.27-9.53 78.95-5.70L78.95-5.70L78.95-5.70Q78.71-4.96 78.71-4.10L78.71-4.10L78.71-4.10Q78.71-1.13 81.33-0.04L81.33-0.04L81.33-0.04Q82.38 0.39 83.55 0.39L83.55 0.39L83.55 0.39Q86.41 0.39 88.36-1.56L88.36-1.56L88.36-1.56Q89.06-2.30 89.41-3.13L89.41-3.13L89.41-3.13Q89.88 0.35 92.62 0.39zM84.84-1.17L84.84-1.17L84.84-1.17Q82.46-1.17 81.91-3.55L81.91-3.55L81.91-3.55Q81.80-4.10 81.80-4.77L81.80-4.77L81.80-4.77Q81.80-7.38 84.80-8.09L84.80-8.09L84.80-8.09Q86.41-8.44 89.45-8.48L89.45-8.48L89.45-5.35L89.45-5.35Q88.87-2.66 86.60-1.56L86.60-1.56L86.60-1.56Q85.70-1.17 84.84-1.17" fill="#93dbe9" stroke="none" stroke-width="none" transform="translate(-97.40499877929688,9.992615307027647)" style="fill: rgb(147, 219, 233);"></path></g><g class="path" style="opacity: 1; transform-origin: 9.955px 1.49762px; animation: 1s linear -0.3s infinite normal forwards running fade-6c949600-c68a-4f06-b70b-c8d8feceafe7;"><path d="M104.96-0.98L104.96-0.98L103.20-0.98L103.20-9.41L103.20-9.41Q103.32-13.05 105.78-14.65L105.78-14.65L105.78-14.65Q106.84-15.31 107.93-15.31L107.93-15.31L107.93-15.31Q110.31-15.31 111.17-13.09L111.17-13.09L111.17-13.09Q111.52-12.19 111.52-11.05L111.52-11.05L111.52-3.32L111.52-3.32Q111.52-1.52 110.51-1.17L110.51-1.17L110.51-1.17Q109.92-0.98 108.59-0.98L108.59-0.98L108.59 0L117.38 0L117.38 0Q117.38-0.86 116.80-0.94L116.80-0.94L116.80-0.94Q116.64-0.98 116.41-0.98L116.41-0.98L114.45-0.98L114.45-10.66L114.45-10.66Q114.45-14.57 111.76-16.25L111.76-16.25L111.76-16.25Q110.51-16.99 109.06-16.99L109.06-16.99L109.06-16.99Q106.17-16.99 104.30-14.69L104.30-14.69L104.30-14.69Q103.59-13.79 103.16-12.70L103.16-12.70L103.01-16.60L97.34-16.60L97.34-15.63L100.27-15.63L100.27-3.32L100.27-3.32Q100.27-1.52 99.26-1.17L99.26-1.17L99.26-1.17Q98.67-0.98 97.34-0.98L97.34-0.98L97.34 0L105.94 0L105.94 0Q105.94-0.86 105.35-0.94L105.35-0.94L105.35-0.94Q105.20-0.98 104.96-0.98" fill="#93dbe9" stroke="none" stroke-width="none" transform="translate(-97.40499877929688,9.992615307027647)" style="fill: rgb(147, 219, 233);"></path></g><g class="path" style="opacity: 1; transform-origin: 31.97px -2.50738px; animation: 1s linear -0.24s infinite normal forwards running fade-6c949600-c68a-4f06-b70b-c8d8feceafe7;"><path d="M132.93-4.14L133.24 0L138.83 0L138.83 0Q138.83-0.86 138.24-0.94L138.24-0.94L138.24-0.94Q138.09-0.98 137.85-0.98L137.85-0.98L135.90-0.98L135.82-25.39L129.18-25.39L129.18-24.41L132.89-24.41L132.89-14.88L132.89-14.88Q130.98-16.99 127.73-16.99L127.73-16.99L127.73-16.99Q123.44-16.99 121.25-13.16L121.25-13.16L121.25-13.16Q119.92-10.82 119.92-7.89L119.92-7.89L119.92-7.89Q119.92-3.05 122.97-0.82L122.97-0.82L122.97-0.82Q124.69 0.39 126.76 0.39L126.76 0.39L126.76 0.39Q131.02 0.31 132.93-4.14L132.93-4.14zM123.24-8.36L123.24-8.36L123.24-8.36Q123.24-13.87 126.21-15.51L126.21-15.51L126.21-15.51Q127.15-16.02 128.28-16.02L128.28-16.02L128.28-16.02Q131.13-16.02 132.34-12.97L132.34-12.97L132.34-12.97Q133.01-11.33 133.01-9.10L133.01-9.10L133.01-9.10Q133.01-4.41 130.66-2.30L130.66-2.30L130.66-2.30Q129.41-1.17 127.81-1.17L127.81-1.17L127.81-1.17Q124.61-1.17 123.63-5.08L123.63-5.08L123.63-5.08Q123.24-6.52 123.24-8.36" fill="#93dbe9" stroke="none" stroke-width="none" transform="translate(-97.40499877929688,9.992615307027647)" style="fill: rgb(147, 219, 233);"></path></g><g class="path" style="opacity: 1; transform-origin: 52.38px 1.69262px; animation: 1s linear -0.18s infinite normal forwards running fade-6c949600-c68a-4f06-b70b-c8d8feceafe7;"><path d="M144.65-8.32L144.65-8.32L144.65-8.32Q144.65-14.38 147.97-15.70L147.97-15.70L147.97-15.70Q148.83-16.02 149.77-16.02L149.77-16.02L149.77-16.02Q154.10-16.02 154.80-10.55L154.80-10.55L154.80-10.55Q154.92-9.61 154.92-8.48L154.92-8.48L154.92-8.48Q154.92-1.91 151.33-0.78L151.33-0.78L151.33-0.78Q150.63-0.59 149.88-0.59L149.88-0.59L149.88-0.59Q145.94-0.59 144.92-5.27L144.92-5.27L144.92-5.27Q144.65-6.64 144.65-8.32zM149.88-16.99L149.88-16.99L149.88-16.99Q146.13-16.99 143.63-14.41L143.63-14.41L143.63-14.41Q141.33-12.03 141.33-8.48L141.33-8.48L141.33-8.48Q141.33-3.55 144.92-1.09L144.92-1.09L144.92-1.09Q147.11 0.39 149.77 0.39L149.77 0.39L149.77 0.39Q153.52 0.39 155.98-2.27L155.98-2.27L155.98-2.27Q158.24-4.69 158.24-8.32L158.24-8.32L158.24-8.32Q158.24-13.24 154.61-15.63L154.61-15.63L154.61-15.63Q152.46-16.99 149.88-16.99" fill="#93dbe9" stroke="none" stroke-width="none" transform="translate(-97.40499877929688,9.992615307027647)" style="fill: rgb(147, 219, 233);"></path></g><g class="path" style="opacity: 1; transform-origin: 66.345px 8.17762px; animation: 1s linear -0.12s infinite normal forwards running fade-6c949600-c68a-4f06-b70b-c8d8feceafe7;"><path d="M165.74-1.80L165.74-1.80L165.74-1.80Q165.74-3.09 164.57-3.63L164.57-3.63L164.57-3.63Q164.18-3.83 163.75-3.83L163.75-3.83L163.75-3.83Q162.46-3.83 161.95-2.66L161.95-2.66L161.95-2.66Q161.76-2.23 161.76-1.80L161.76-1.80L161.76-1.80Q161.76-0.55 162.89 0L162.89 0L162.89 0Q163.32 0.20 163.75 0.20L163.75 0.20L163.75 0.20Q165 0.20 165.55-0.94L165.55-0.94L165.55-0.94Q165.74-1.37 165.74-1.80" fill="#93dbe9" stroke="none" stroke-width="none" transform="translate(-97.40499877929688,9.992615307027647)" style="fill: rgb(147, 219, 233);"></path></g><g class="path" style="opacity: 1; transform-origin: 81.855px 8.17762px; animation: 1s linear -0.06s infinite normal forwards running fade-6c949600-c68a-4f06-b70b-c8d8feceafe7;"><path d="M181.25-1.80L181.25-1.80L181.25-1.80Q181.25-3.09 180.08-3.63L180.08-3.63L180.08-3.63Q179.69-3.83 179.26-3.83L179.26-3.83L179.26-3.83Q177.97-3.83 177.46-2.66L177.46-2.66L177.46-2.66Q177.27-2.23 177.27-1.80L177.27-1.80L177.27-1.80Q177.27-0.55 178.40 0L178.40 0L178.40 0Q178.83 0.20 179.26 0.20L179.26 0.20L179.26 0.20Q180.51 0.20 181.05-0.94L181.05-0.94L181.05-0.94Q181.25-1.37 181.25-1.80" fill="#93dbe9" stroke="none" stroke-width="none" transform="translate(-97.40499877929688,9.992615307027647)" style="fill: rgb(147, 219, 233);"></path></g><g class="path" style="opacity: 1; transform-origin: 97.36px 8.17762px; animation: 1s linear 0s infinite normal forwards running fade-6c949600-c68a-4f06-b70b-c8d8feceafe7;"><path d="M196.76-1.80L196.76-1.80L196.76-1.80Q196.76-3.09 195.59-3.63L195.59-3.63L195.59-3.63Q195.20-3.83 194.77-3.83L194.77-3.83L194.77-3.83Q193.48-3.83 192.97-2.66L192.97-2.66L192.97-2.66Q192.77-2.23 192.77-1.80L192.77-1.80L192.77-1.80Q192.77-0.55 193.91 0L193.91 0L193.91 0Q194.34 0.20 194.77 0.20L194.77 0.20L194.77 0.20Q196.02 0.20 196.56-0.94L196.56-0.94L196.56-0.94Q196.76-1.37 196.76-1.80" fill="#93dbe9" stroke="none" stroke-width="none" transform="translate(-97.40499877929688,9.992615307027647)" style="fill: rgb(147, 219, 233);"></path></g></g>
</g>
</g>
<style id="fade-6c949600-c68a-4f06-b70b-c8d8feceafe7" data-anikit="">@keyframes fade-6c949600-c68a-4f06-b70b-c8d8feceafe7
{
  0% {
    animation-timing-function: cubic-bezier(0.2057,0.573,0.3723,0.9184);
    opacity: 1;
  }
  100% {
    opacity: 0;
  }
}</style></svg>